<svg xmlns="http://www.w3.org/2000/svg" width="138.1" height="58.7" viewBox="0 0 138.1 58.7">
  <g id="Layer_2" data-name="Layer 2">
    <g id="Layer_1-2" data-name="Layer 1">
      <g>
        <polygon points="132 58.7 0 58.7 0 0 132 0 132 14.5 129.6 14.5 129.6 2.4 2.4 2.4 2.4 56.3 129.6 56.3 129.6 44.7 132 44.7 132 58.7" style="fill: #fff"/>
        <rect x="45.4" y="14.5" width="2.4" height="30.26" style="fill: #fff"/>
        <path d="M32,29.3a8.2,8.2,0,0,0-4.7-14.8H17.1V44.7H28.2a8.2,8.2,0,0,0,8.2-8.1A8.3,8.3,0,0,0,32,29.3ZM27.3,16.8a5.8,5.8,0,1,1,0,11.6H19.5V16.8Zm.9,25.5H19.5V30.8h8.7a5.8,5.8,0,1,1,0,11.5Z" style="fill: #fff"/>
        <polygon points="68.8 27.5 59.7 14.5 57.9 14.5 57.9 44.7 60.3 44.7 60.3 19.4 68.8 31.6 77.3 19.4 77.3 44.7 79.7 44.7 79.7 14.5 77.9 14.5 68.8 27.5" style="fill: #fff"/>
        <path d="M107.5,14.5h-1.7L95.1,44.7h2.5l2.1-6.1h13.9l2.1,6.1h2.5Zm-6.9,21.8,6-17.1,6.1,17.1Z" style="fill: #fff"/>
        <polygon points="132 28.4 132 21.8 129.6 21.8 129.6 28.4 123.5 28.4 123.5 30.8 129.6 30.8 129.6 37.3 132 37.3 132 30.8 138.1 30.8 138.1 28.4 132 28.4" style="fill: #fff"/>
      </g>
    </g>
  </g>
</svg>
