<svg xmlns="http://www.w3.org/2000/svg" width="381.5" height="58.7" viewBox="0 0 381.5 58.7">
  <g id="Layer_2" data-name="Layer 2">
    <g id="Layer_1-2" data-name="Layer 1">
      <g>
        <polygon points="132 58.7 0 58.7 0 0 132 0 132 14.5 129.6 14.5 129.6 2.4 2.4 2.4 2.4 56.3 129.6 56.3 129.6 44.7 132 44.7 132 58.7" style="fill: #fff"/>
        <rect x="45.4" y="14.5" width="2.4" height="30.26" style="fill: #fff"/>
        <path d="M32,29.3a8.2,8.2,0,0,0-4.7-14.8H17.1V44.7H28.2a8.2,8.2,0,0,0,8.2-8.1A8.3,8.3,0,0,0,32,29.3ZM27.3,16.8a5.8,5.8,0,1,1,0,11.6H19.5V16.8Zm.9,25.5H19.5V30.8h8.7a5.8,5.8,0,1,1,0,11.5Z" style="fill: #fff"/>
        <polygon points="68.8 27.5 59.7 14.5 57.9 14.5 57.9 44.7 60.3 44.7 60.3 19.4 68.8 31.6 77.3 19.4 77.3 44.7 79.7 44.7 79.7 14.5 77.9 14.5 68.8 27.5" style="fill: #fff"/>
        <path d="M107.5,14.5h-1.7L95.1,44.7h2.5l2.1-6.1h13.9l2.1,6.1h2.5Zm-6.9,21.8,6-17.1,6.1,17.1Z" style="fill: #fff"/>
        <polygon points="132 28.4 132 21.8 129.6 21.8 129.6 28.4 123.5 28.4 123.5 30.8 129.6 30.8 129.6 37.3 132 37.3 132 30.8 138.1 30.8 138.1 28.4 132 28.4" style="fill: #fff"/>
        <g>
          <path d="M163.9,13.1H157V18h5v.6h-5v4.8a.1.1,0,0,0,.1.1h6.8a.1.1,0,0,1,.1.1v.4c0,.1,0,.1-.1.2h-7.7c-.1-.1-.1-.1-.1-.2V12.3h7.7v.8Z" style="fill: #fff"/>
          <path d="M172.2,15.8a.1.1,0,0,1,.1-.1h.5a.1.1,0,0,1,.1.1v8.6c0,.1,0,.1-.1.2h-.7c-.1-.1-.1-.1-.1-.2v-.8h0a.1.1,0,0,0-.1.1,2.2,2.2,0,0,1-1,.9,3.3,3.3,0,0,1-1.5.3,3,3,0,0,1-2.1-.8,2.6,2.6,0,0,1-.9-2.1V15.8a.1.1,0,0,1,.1-.1h.5a.1.1,0,0,1,.1.1v5.8a2.4,2.4,0,0,0,.6,1.7,2.5,2.5,0,0,0,1.7.6,2.4,2.4,0,0,0,1.7-.6,2.1,2.1,0,0,0,.7-1.7V15.8Z" style="fill: #fff"/>
          <path d="M180.4,15.9c.1,0,.2.1.1.2v.5c0,.2-.1.2-.3.2h-.8a1.9,1.9,0,0,0-1.6.7,2.4,2.4,0,0,0-.7,1.8v5.4h-.9V15.8h.9v1.3h.1a2.9,2.9,0,0,1,.9-1,2.3,2.3,0,0,1,1.4-.4A1.6,1.6,0,0,1,180.4,15.9Z" style="fill: #fff"/>
          <path d="M183.5,24.1a3,3,0,0,1-1.2-1.7,6.5,6.5,0,0,1-.2-2.2,6.5,6.5,0,0,1,.2-2.2,3,3,0,0,1,1.2-1.7,3.5,3.5,0,0,1,4.2,0,3,3,0,0,1,1.2,1.7,10.9,10.9,0,0,1,.2,2.2,10.9,10.9,0,0,1-.2,2.2,3,3,0,0,1-1.2,1.7,3.5,3.5,0,0,1-4.2,0Zm3.7-.7a3,3,0,0,0,.9-1.3c0-.4.1-1,.1-1.9s-.1-1.6-.1-1.9a3.4,3.4,0,0,0-.9-1.4,2.8,2.8,0,0,0-1.6-.5,2.5,2.5,0,0,0-1.6.5,2.6,2.6,0,0,0-.9,1.4c0,.3-.1,1-.1,1.9s.1,1.6.1,1.9a2.4,2.4,0,0,0,.9,1.3,2.4,2.4,0,0,0,3.2,0Z" style="fill: #fff"/>
          <path d="M198.8,20.2a5.3,5.3,0,0,1-.1,1.3,2.8,2.8,0,0,1-.1.9,3.4,3.4,0,0,1-1.1,1.7,3.1,3.1,0,0,1-2.1.7,3.2,3.2,0,0,1-1.4-.3,2.8,2.8,0,0,1-1-.9h-.1v4.3h-.7a.1.1,0,0,1-.1-.1c-.1,0-.1,0-.1-.1V15.8h.8v1h.1a2.8,2.8,0,0,1,1-.9,3.2,3.2,0,0,1,4.6,2.1A10.2,10.2,0,0,1,198.8,20.2Zm-1,1.4V18.9c-.1-.3-.1-.5-.2-.8a2,2,0,0,0-.8-1.2,2.5,2.5,0,0,0-1.5-.5,2.1,2.1,0,0,0-2.1,1.7,1.9,1.9,0,0,0-.2.7v2.7c.1.3.1.6.2.8a2.1,2.1,0,0,0,2.1,1.7,2.2,2.2,0,0,0,1.4-.5,3.1,3.1,0,0,0,.9-1.1C197.7,22.1,197.7,21.8,197.8,21.6Z" style="fill: #fff"/>
          <path d="M206.3,23.6a2.4,2.4,0,0,0,.9-1.1c0-.1.1-.1.3-.1h.3c.1.1.2.2.1.3a4.4,4.4,0,0,1-1.2,1.5,4.2,4.2,0,0,1-2,.5,3.7,3.7,0,0,1-2.1-.6,3.4,3.4,0,0,1-1.1-1.7,6.7,6.7,0,0,1-.3-2.3,4.5,4.5,0,0,1,.1-1.3,1.9,1.9,0,0,1,.1-.8,2.8,2.8,0,0,1,1.1-1.8,3.2,3.2,0,0,1,2.2-.7,3.6,3.6,0,0,1,2.2.7,3.1,3.1,0,0,1,1.1,2.1,1.7,1.7,0,0,1,.1.7,4.1,4.1,0,0,1,.1,1.2.2.2,0,0,1-.2.2h-5.8a.1.1,0,0,0-.1.1c0,.7.1,1.2.1,1.5a3.4,3.4,0,0,0,.9,1.4,2.9,2.9,0,0,0,1.7.5A3.7,3.7,0,0,0,206.3,23.6Zm-4.2-3.9h5.1a5.3,5.3,0,0,0-.1-1.4,2.2,2.2,0,0,0-.8-1.3,2.5,2.5,0,0,0-1.6-.6,2.5,2.5,0,0,0-1.6.5,2.5,2.5,0,0,0-.8,1.4A8.8,8.8,0,0,0,202.1,19.7Z" style="fill: #fff"/>
          <path d="M216.2,16.4a3.1,3.1,0,0,1,.8,2.2v6h-.9v-.9H216a2.7,2.7,0,0,1-1.2.9,4.7,4.7,0,0,1-1.7.3,3.2,3.2,0,0,1-2-.6,2.1,2.1,0,0,1-.8-1.9,2.6,2.6,0,0,1,.9-2.1,4.5,4.5,0,0,1,2.7-.7H216a.1.1,0,0,0,.1-.1v-.8a2.1,2.1,0,0,0-.6-1.6,2.1,2.1,0,0,0-1.7-.6,3.3,3.3,0,0,0-1.5.4,1.4,1.4,0,0,0-.7,1,.2.2,0,0,1-.2.2h-.6a.2.2,0,0,1-.2-.2,2.3,2.3,0,0,1,1.1-1.5,3.5,3.5,0,0,1,2.1-.6A3.3,3.3,0,0,1,216.2,16.4Zm-.9,7a1.6,1.6,0,0,0,.8-1.5V20.3a.1.1,0,0,0-.1-.1h-2a3,3,0,0,0-2,.6,1.4,1.4,0,0,0-.8,1.4,1.5,1.5,0,0,0,.6,1.3,2.5,2.5,0,0,0,1.5.5A3.4,3.4,0,0,0,215.3,23.4Z" style="fill: #fff"/>
          <path d="M225.5,16.5a2.6,2.6,0,0,1,.9,2.1v5.8c0,.1-.1.1-.1.2h-.8c-.1-.1-.1-.1-.1-.2V18.8a2.5,2.5,0,0,0-.6-1.7,2.3,2.3,0,0,0-4,1.7v5.6c0,.1-.1.1-.1.2h-.8c-.1-.1-.1-.1-.1-.2V15.8h.8v1h0a2.4,2.4,0,0,1,1.1-.9,3.2,3.2,0,0,1,1.4-.3A2.8,2.8,0,0,1,225.5,16.5Z" style="fill: #fff"/>
          <path d="M233.2,24.6c-.1-.1-.1-.1-.1-.2V12.3h.9l3.4,5.4h.1l3.5-5.4h.9V24.4c0,.1,0,.1-.1.2h-.8c0-.1-.1-.1-.1-.2V14.1H241l-3,4.8c-.1.1-.1.2-.3.2h-.2l-.3-.2-3.1-4.8h0V24.4c0,.1-.1.1-.1.2h-.8Z" style="fill: #fff"/>
          <path d="M250.7,16.4a2.8,2.8,0,0,1,.9,2.2v5.8c0,.1-.1.1-.1.2h-.8c-.1-.1-.1-.1-.1-.2v-.7h-.1a2.7,2.7,0,0,1-1.2.9,4.1,4.1,0,0,1-1.6.3,3.7,3.7,0,0,1-2.1-.6,2.4,2.4,0,0,1-.8-1.9,2.4,2.4,0,0,1,1-2.1,4,4,0,0,1,2.6-.7h2.1a.1.1,0,0,0,.1-.1v-.8a2.5,2.5,0,0,0-.5-1.6,2.4,2.4,0,0,0-1.7-.6,3.3,3.3,0,0,0-1.5.4,1.2,1.2,0,0,0-.7,1l-.3.2h-.5c-.2,0-.3-.1-.2-.2a2.2,2.2,0,0,1,1-1.5,3.8,3.8,0,0,1,2.2-.6A3.2,3.2,0,0,1,250.7,16.4Zm-.9,7a1.6,1.6,0,0,0,.8-1.5V20.3a.1.1,0,0,0-.1-.1h-2a3.2,3.2,0,0,0-2,.6,1.6,1.6,0,0,0-.8,1.4,1.5,1.5,0,0,0,.6,1.3,2.5,2.5,0,0,0,1.6.5A3.1,3.1,0,0,0,249.8,23.4Z" style="fill: #fff"/>
          <path d="M255.4,24.4l-1.1-.8a1.9,1.9,0,0,1-.4-1.2v-.2h.1a.1.1,0,0,1,.1-.1h.7v.2a1.3,1.3,0,0,0,.7,1.1,2.8,2.8,0,0,0,3.2,0,1.3,1.3,0,0,0,.7-1.2.9.9,0,0,0-.4-.8,1.8,1.8,0,0,0-.7-.5l-1.3-.4-1.6-.6a2.6,2.6,0,0,1-1-.7A2,2,0,0,1,254,18a2,2,0,0,1,.8-1.7,3.9,3.9,0,0,1,2.3-.6,4.1,4.1,0,0,1,1.6.3,2.4,2.4,0,0,1,1.1.8,1.9,1.9,0,0,1,.4,1.2h0v.2h-.9a1.4,1.4,0,0,0-.6-1.1,2.9,2.9,0,0,0-1.7-.4,2.4,2.4,0,0,0-1.5.4,1.1,1.1,0,0,0-.6,1.1,1,1,0,0,0,.5,1,8.4,8.4,0,0,0,1.8.7l1.6.5,1.1.8a2.2,2.2,0,0,1,.4,1.3,2.3,2.3,0,0,1-.9,1.8,3.7,3.7,0,0,1-2.3.6A4.7,4.7,0,0,1,255.4,24.4Z" style="fill: #fff"/>
          <path d="M266.5,16.5h-2.2a.1.1,0,0,0-.1.1v5.6c0,.6.1,1,.4,1.2a1.7,1.7,0,0,0,1.3.4h.5a.1.1,0,0,1,.1.1v.4c0,.2-.1.2-.2.2h-.5a3.6,3.6,0,0,1-1.9-.4,2.2,2.2,0,0,1-.6-1.8V16.6a.1.1,0,0,0-.1-.1H262v-.7h1.3V13.5h.8v2.2h2.3v.7Z" style="fill: #fff"/>
          <path d="M273.6,23.6a2.4,2.4,0,0,0,.9-1.1h.6c.2.1.2.2.1.3a2.9,2.9,0,0,1-1.2,1.5,3.9,3.9,0,0,1-2,.5,3.2,3.2,0,0,1-2-.6,3,3,0,0,1-1.2-1.7,7.2,7.2,0,0,1-.2-2.3V18.9a1.9,1.9,0,0,1,.1-.8,2.9,2.9,0,0,1,1.2-1.8,3,3,0,0,1,2.1-.7,4.2,4.2,0,0,1,2.3.7,3.6,3.6,0,0,1,1.1,2.1c0,.2.1.5.1.7v1.2l-.2.2h-5.7c-.1,0-.1,0-.1.1a5.8,5.8,0,0,0,.1,1.5,2.5,2.5,0,0,0,.8,1.4,3.1,3.1,0,0,0,1.7.5A3.3,3.3,0,0,0,273.6,23.6Zm-4.1-3.9h5V18.3a3,3,0,0,0-.9-1.3,2.3,2.3,0,0,0-1.6-.6,2.8,2.8,0,0,0-1.6.5,2.5,2.5,0,0,0-.8,1.4A4.5,4.5,0,0,0,269.5,19.7Z" style="fill: #fff"/>
          <path d="M282.6,15.9c.1,0,.1.1.1.2l-.2.5c0,.2-.1.2-.2.2h-.9a2,2,0,0,0-1.6.7,2.8,2.8,0,0,0-.6,1.8v5.2c0,.1-.1.1-.1.2h-.8c-.1-.1-.1-.1-.1-.2V15.8h.8v1.3h0a3.2,3.2,0,0,1,1-1,2.1,2.1,0,0,1,1.4-.4A1.8,1.8,0,0,1,282.6,15.9Z" style="fill: #fff"/>
          <path d="M288.1,13.7a.8.8,0,0,1-.2-.5,1.4,1.4,0,0,1,.2-.6l.6-.2.6.2a1.4,1.4,0,0,1,.2.6.8.8,0,0,1-.2.5.7.7,0,0,1-1.2,0Zm.2,10.9c0-.1-.1-.1-.1-.2V15.8h.8v8.6c0,.1-.1.1-.1.2h-.8Z" style="fill: #fff"/>
          <path d="M298.1,16.5a2.9,2.9,0,0,1,.8,2.1v5.8c0,.1,0,.1-.1.2H298V18.8a2.2,2.2,0,0,0-.7-1.7,2.1,2.1,0,0,0-1.6-.6,2.4,2.4,0,0,0-1.7.6,2.1,2.1,0,0,0-.7,1.7v5.6c0,.1,0,.1-.1.2h-.8V15.8h.8v1h.1a2.2,2.2,0,0,1,1-.9,3.3,3.3,0,0,1,1.5-.3A2.9,2.9,0,0,1,298.1,16.5Z" style="fill: #fff"/>
          <path d="M162,39.4h0a2.5,2.5,0,0,1,1.5,1.1,3.2,3.2,0,0,1,.5,1.9,3.1,3.1,0,0,1-.9,2.4,3.9,3.9,0,0,1-2.6.9h-4.3c-.1-.1-.1-.1-.1-.2V33.7c0-.1,0-.1.1-.2h4.1a4,4,0,0,1,2.6.8,3,3,0,0,1,1,2.4,3.4,3.4,0,0,1-.5,1.7,3,3,0,0,1-1.4,1Zm-5-5V39a.1.1,0,0,0,.1.1h3.2a2.7,2.7,0,0,0,2-.7,2.4,2.4,0,0,0,0-3.4,2.7,2.7,0,0,0-2-.7h-3.2A.1.1,0,0,0,157,34.4Zm5.4,9.9a2.5,2.5,0,0,0,.7-1.9,2.3,2.3,0,0,0-.7-1.8,2.7,2.7,0,0,0-2-.7H157v5a.1.1,0,0,0,.1.1h3.4A2.5,2.5,0,0,0,162.4,44.3Z" style="fill: #fff"/>
          <path d="M172.2,37h.8v8.8h-.8c-.1-.1-.1-.1-.1-.2v-.8H172a1.8,1.8,0,0,1-1,.9,3.2,3.2,0,0,1-1.4.3,3.3,3.3,0,0,1-2.2-.8,2.7,2.7,0,0,1-.9-2.2V37.2c0-.1,0-.2.1-.2h.8v5.8a2.4,2.4,0,0,0,.7,1.7,2.1,2.1,0,0,0,1.6.6,2.6,2.6,0,0,0,1.8-.6,2.4,2.4,0,0,0,.6-1.7V37.2C172.1,37.1,172.1,37,172.2,37Z" style="fill: #fff"/>
          <path d="M176.1,34.9a.8.8,0,0,1-.2-.5,1.4,1.4,0,0,1,.2-.6l.6-.2a1.1,1.1,0,0,1,.6.2.7.7,0,0,1,.2.6c0,.2,0,.4-.2.5a.7.7,0,0,1-.6.3Zm.2,10.9V37h.8c.1,0,.1.1.1.2v8.4c0,.1,0,.1-.1.2h-.8Z" style="fill: #fff"/>
          <path d="M180.5,45.8c-.1-.1-.1-.1-.1-.2V33.7c0-.1,0-.1.1-.2h.8V45.8h-.8Z" style="fill: #fff"/>
          <path d="M190,33.5h.8V45.8H190c-.1-.1-.1-.1-.1-.2v-.8h-.1a2.8,2.8,0,0,1-1,.9,3.2,3.2,0,0,1-1.4.3,2.7,2.7,0,0,1-2-.7,2.6,2.6,0,0,1-1.1-1.7,6.5,6.5,0,0,1-.2-2.2V40.1c0-.3.1-.6.1-.9a3.6,3.6,0,0,1,1.2-1.8,3.5,3.5,0,0,1,3.4-.3,2.8,2.8,0,0,1,1,.9h.1V33.7C189.9,33.6,189.9,33.6,190,33.5Zm-.2,9.2a4.5,4.5,0,0,0,.1-1.3,5.3,5.3,0,0,0-.1-1.4,1.9,1.9,0,0,0-.2-.7,1.9,1.9,0,0,0-.7-1.2,2.2,2.2,0,0,0-1.4-.5,2.4,2.4,0,0,0-1.4.5,2.1,2.1,0,0,0-.8,1.1,2.4,2.4,0,0,0-.2.8,5.3,5.3,0,0,0-.1,1.4,4.5,4.5,0,0,0,.1,1.3,2.2,2.2,0,0,0,.1.8,2.5,2.5,0,0,0,.8,1.2,2.7,2.7,0,0,0,1.5.5,2.2,2.2,0,0,0,1.4-.5,2.5,2.5,0,0,0,.8-1.2C189.7,43.3,189.8,43,189.8,42.7Z" style="fill: #fff"/>
          <path d="M193.9,34.9a.8.8,0,0,1-.2-.5,1.4,1.4,0,0,1,.2-.6l.6-.2.6.2a1.4,1.4,0,0,1,.2.6.8.8,0,0,1-.2.5.7.7,0,0,1-1.2,0Zm.2,10.9c0-.1-.1-.1-.1-.2V37.2a.3.3,0,0,1,.1-.2h.8c.1,0,.1.1.1.2v8.4c0,.1,0,.1-.1.2h-.8Z" style="fill: #fff"/>
          <path d="M203.9,37.6a3.3,3.3,0,0,1,.8,2.2v5.8c0,.1,0,.1-.1.2h-.8V40a2.1,2.1,0,0,0-.7-1.7,2.2,2.2,0,0,0-1.6-.7,2.4,2.4,0,0,0-1.7.7,2.1,2.1,0,0,0-.7,1.7v5.6c0,.1,0,.1-.1.2h-.8V37h.7a.1.1,0,0,1,.1.1c.1,0,.1.1.1.2V38h.1a2.2,2.2,0,0,1,1-.9,3.3,3.3,0,0,1,1.5-.3A3.3,3.3,0,0,1,203.9,37.6Z" style="fill: #fff"/>
          <path d="M213.2,37h.8c.1,0,.1.1.1.2v8.4a3.3,3.3,0,0,1-1.2,2.9,5.5,5.5,0,0,1-3.4.9c-.1-.1-.2-.1-.2-.3v-.4c0-.2.1-.2.3-.2a4.1,4.1,0,0,0,2.7-.7,2.5,2.5,0,0,0,.9-2.2v-.9h-.1a2.9,2.9,0,0,1-2.4,1.2,3.7,3.7,0,0,1-2.1-.6,3.4,3.4,0,0,1-1.1-1.7,10.9,10.9,0,0,1-.2-2.2,12.1,12.1,0,0,1,.2-2.3,3.9,3.9,0,0,1,1.1-1.7,3.4,3.4,0,0,1,2-.6,2.9,2.9,0,0,1,2.5,1.2h.1V37Zm-.1,5.6a4.1,4.1,0,0,0,.1-1.2,3.5,3.5,0,0,0-.1-1.2v-.7a2.2,2.2,0,0,0-.8-1.3,2.2,2.2,0,0,0-3,0,2,2,0,0,0-.9,1.3,7.8,7.8,0,0,0-.2,1.9,6.8,6.8,0,0,0,.2,1.8,2.5,2.5,0,0,0,.8,1.4,3,3,0,0,0,1.6.5,2.2,2.2,0,0,0,2.3-1.9Z" style="fill: #fff"/>
          <path d="M220.9,45.8c-.1-.1-.1-.1-.1-.2V33.7c0-.1,0-.1.1-.2h.8V45.8h-.8Z" style="fill: #fff"/>
          <path d="M230.8,37.6a2.9,2.9,0,0,1,.8,2.2v6h-.8c-.1-.1-.1-.1-.1-.2V40a2.4,2.4,0,0,0-.6-1.7,2.6,2.6,0,0,0-1.7-.7A2.4,2.4,0,0,0,226,40v5.8h-.8c-.1-.1-.1-.1-.1-.2V37.2c0-.1,0-.2.1-.2h.8v1h.1a2.8,2.8,0,0,1,1-.9,4,4,0,0,1,1.5-.3A3.1,3.1,0,0,1,230.8,37.6Z" style="fill: #fff"/>
          <path d="M236.4,34.8a3.1,3.1,0,0,0-.4,1.6v.5h2.3v.6h-2.2a.1.1,0,0,0-.1.1v7.9h-.8c-.1-.1-.1-.1-.1-.2V37.9c0-.1,0-.1-.1-.1h-1.3V37h1.4v-.5a7.2,7.2,0,0,1,.2-1.7,2.4,2.4,0,0,1,.8-.9,4,4,0,0,1,1.7-.3h.5c.1.1.1.1.1.2v.4c0,.1,0,.1-.1.1h-.5A1.8,1.8,0,0,0,236.4,34.8Z" style="fill: #fff"/>
          <path d="M241,45.3a3,3,0,0,1-1.2-1.7,6.1,6.1,0,0,1-.3-2.2,10.9,10.9,0,0,1,.2-2.2,5.7,5.7,0,0,1,1.2-1.8,3.8,3.8,0,0,1,2.2-.6,3.1,3.1,0,0,1,2.1.7,3,3,0,0,1,1.2,1.7,12.2,12.2,0,0,1,0,4.4,3,3,0,0,1-1.2,1.7,3.1,3.1,0,0,1-2.1.7A2.8,2.8,0,0,1,241,45.3Zm3.7-.7a2.2,2.2,0,0,0,.8-1.3,9.2,9.2,0,0,0,.1-1.9,8.2,8.2,0,0,0-.1-1.9,2.5,2.5,0,0,0-.8-1.4,3,3,0,0,0-1.6-.5,2.5,2.5,0,0,0-1.6.5,2.2,2.2,0,0,0-.9,1.4,8.2,8.2,0,0,0-.1,1.9,8.7,8.7,0,0,0,.1,1.9,2,2,0,0,0,.9,1.3,2.1,2.1,0,0,0,1.6.6A2.5,2.5,0,0,0,244.7,44.6Z" style="fill: #fff"/>
          <path d="M253.7,37.1c.1,0,.2.1.1.2v.5c0,.2-.1.2-.3.2a1.1,1.1,0,0,0-.8-.1,2.2,2.2,0,0,0-1.7.7,2.8,2.8,0,0,0-.6,1.8v5.2c0,.1,0,.1-.1.2h-.8V37h.8c.1,0,.1.1.1.2v1.1h0a.1.1,0,0,0,.1-.1,2.2,2.2,0,0,1,.9-1,2.3,2.3,0,0,1,1.4-.4A1.6,1.6,0,0,1,253.7,37.1Z" style="fill: #fff"/>
          <path d="M266.6,37.6a2.9,2.9,0,0,1,.8,2.1v5.9c0,.1,0,.1-.1.2h-.8V39.9a2.2,2.2,0,0,0-2.2-2.3,2.1,2.1,0,0,0-2.3,2.3v5.7c0,.1,0,.1-.1.2h-.8V39.9a2.1,2.1,0,0,0-.6-1.6,2,2,0,0,0-1.6-.7,2.1,2.1,0,0,0-1.6.6,2.1,2.1,0,0,0-.7,1.7v5.9h-.8c-.1-.1-.1-.1-.1-.2V37.2c0-.1,0-.2.1-.2h.8v.9h.1a3.9,3.9,0,0,1,1-.8,3.2,3.2,0,0,1,1.4-.3,2.5,2.5,0,0,1,1.6.4,2.6,2.6,0,0,1,1,1.1h.1a2.6,2.6,0,0,1,1.1-1.2,2.9,2.9,0,0,1,1.6-.4A2.9,2.9,0,0,1,266.6,37.6Z" style="fill: #fff"/>
          <path d="M275.6,37.6a2.7,2.7,0,0,1,.8,2.2v6h-.8c-.1-.1-.1-.1-.1-.2v-.7h-.1a2.7,2.7,0,0,1-1.2.9,4.5,4.5,0,0,1-1.6.3,3.5,3.5,0,0,1-2.1-.6,2.4,2.4,0,0,1-.8-1.9,2.6,2.6,0,0,1,.9-2.1,4.6,4.6,0,0,1,2.7-.8h2.2v-.8a2.5,2.5,0,0,0-.5-1.6,2.4,2.4,0,0,0-1.8-.6,2,2,0,0,0-1.4.4,1.6,1.6,0,0,0-.8,1c0,.1-.1.2-.2.1h-.6a.2.2,0,0,1-.2-.2,2.7,2.7,0,0,1,1.1-1.5,3.8,3.8,0,0,1,2.2-.6A3.2,3.2,0,0,1,275.6,37.6Zm-.9,7a1.6,1.6,0,0,0,.8-1.5V41.5c0-.1,0-.1-.1-.1h-2a3.2,3.2,0,0,0-2,.6,1.6,1.6,0,0,0-.8,1.4,1.5,1.5,0,0,0,.6,1.3,2.5,2.5,0,0,0,1.5.5A3.4,3.4,0,0,0,274.7,44.6Z" style="fill: #fff"/>
          <path d="M282.8,37.7h-2.2v5.6c0,.6.1,1,.4,1.2a1.7,1.7,0,0,0,1.3.4h.4a.1.1,0,0,1,.1.1c.1,0,.1,0,.1.1v.4c0,.2-.1.2-.2.2h-.5a3.4,3.4,0,0,1-1.9-.4,2.3,2.3,0,0,1-.6-1.8V37.8h-1.3V37h1.3V34.7h.8c.1.1.1.1.1.2v2h2.2c.1,0,.1.1.1.2v.3C282.9,37.6,282.9,37.6,282.8,37.7Z" style="fill: #fff"/>
          <path d="M285.5,34.9a.8.8,0,0,1-.2-.5,1.4,1.4,0,0,1,.2-.6l.6-.2.6.2a.7.7,0,0,1,.2.6c0,.2,0,.4-.2.5a.6.6,0,0,1-.6.3A.9.9,0,0,1,285.5,34.9Zm.2,10.9V37h.7a.1.1,0,0,1,.1.1c.1,0,.1.1.1.2v8.4c0,.1,0,.1-.1.2h-.8Z" style="fill: #fff"/>
          <path d="M290.9,45.3a3,3,0,0,1-1.2-1.7,12.2,12.2,0,0,1,0-4.4,3.6,3.6,0,0,1,1.2-1.8,3.7,3.7,0,0,1,2.1-.6,3.2,3.2,0,0,1,2.2.7,3,3,0,0,1,1.2,1.7,12.2,12.2,0,0,1,0,4.4,3,3,0,0,1-1.2,1.7,3.2,3.2,0,0,1-2.2.7A3.1,3.1,0,0,1,290.9,45.3Zm3.7-.7a2,2,0,0,0,.9-1.3,9.2,9.2,0,0,0,.1-1.9,8.2,8.2,0,0,0-.1-1.9,2.2,2.2,0,0,0-.9-1.4,2.5,2.5,0,0,0-1.6-.5,2.8,2.8,0,0,0-1.6.5,2.5,2.5,0,0,0-.8,1.4,8.2,8.2,0,0,0-.1,1.9,8.7,8.7,0,0,0,.1,1.9,2.2,2.2,0,0,0,.8,1.3,2.3,2.3,0,0,0,1.6.6A2.1,2.1,0,0,0,294.6,44.6Z" style="fill: #fff"/>
          <path d="M305,37.6a2.9,2.9,0,0,1,.9,2.2v5.8c0,.1-.1.1-.1.2H305c-.1-.1-.1-.1-.1-.2V40a2.4,2.4,0,0,0-.6-1.7,2.4,2.4,0,0,0-3.4,0,2.4,2.4,0,0,0-.6,1.7v5.6c0,.1-.1.1-.1.2h-.8c-.1-.1-.1-.1-.1-.2V37.2c0-.1,0-.2.1-.2h.8a.3.3,0,0,1,.1.2V38h0a2.4,2.4,0,0,1,1.1-.9,3.2,3.2,0,0,1,1.4-.3A3.1,3.1,0,0,1,305,37.6Z" style="fill: #fff"/>
          <path d="M312.7,45.8c-.1-.1-.1-.1-.1-.2V33.7c0-.1,0-.1.1-.2h.7c.1,0,.2,0,.2.1L317,39h.1l3.5-5.4c0-.1.1-.1.2-.1h.7c.1.1.1.1.1.2V45.6c0,.1,0,.1-.1.2h-.8c0-.1-.1-.1-.1-.2V35.3h-.1l-3,4.8c-.1.1-.1.2-.3.2H317l-.3-.2-3.1-4.8h0V45.6c0,.1-.1.1-.1.2h-.8Z" style="fill: #fff"/>
          <path d="M326,45.3a4.3,4.3,0,0,1-1.2-1.7,12.2,12.2,0,0,1,0-4.4,3.6,3.6,0,0,1,1.2-1.8,3.8,3.8,0,0,1,2.2-.6,3.1,3.1,0,0,1,2.1.7,3,3,0,0,1,1.2,1.7,12.2,12.2,0,0,1,0,4.4,3,3,0,0,1-1.2,1.7,3.1,3.1,0,0,1-2.1.7A3.2,3.2,0,0,1,326,45.3Zm3.8-.7a2.2,2.2,0,0,0,.8-1.3,9.2,9.2,0,0,0,.1-1.9,8.2,8.2,0,0,0-.1-1.9,2.5,2.5,0,0,0-.8-1.4,3.1,3.1,0,0,0-1.7-.5,3,3,0,0,0-1.6.5,2.5,2.5,0,0,0-.8,1.4,8.2,8.2,0,0,0-.1,1.9,8.7,8.7,0,0,0,.1,1.9,2.2,2.2,0,0,0,.8,1.3,2.5,2.5,0,0,0,1.7.6A2.5,2.5,0,0,0,329.8,44.6Z" style="fill: #fff"/>
          <path d="M340,33.5h.8c.1.1.1.1.1.2V45.6c0,.1,0,.1-.1.2H340c0-.1-.1-.1-.1-.2v-.8h0a2.8,2.8,0,0,1-1,.9,3.5,3.5,0,0,1-1.4.3,3.1,3.1,0,0,1-2.1-.7,3,3,0,0,1-1.1-1.7,10.9,10.9,0,0,1-.2-2.2V40.1c.1-.3.1-.6.2-.9a4.2,4.2,0,0,1,1.1-1.8,3.7,3.7,0,0,1,2.1-.6,3.5,3.5,0,0,1,1.4.3,2.8,2.8,0,0,1,1,.9h0V33.7C339.9,33.6,340,33.6,340,33.5Zm-.1,9.2V40c-.1-.2-.1-.5-.2-.7a2.1,2.1,0,0,0-2.1-1.7,2.5,2.5,0,0,0-1.5.5,2.8,2.8,0,0,0-.8,1.1c-.1.3-.1.5-.2.8s-.1.8-.1,1.4.1,1,.1,1.3a2.4,2.4,0,0,0,.2.8,2,2,0,0,0,.8,1.2,2.5,2.5,0,0,0,1.5.5,2.1,2.1,0,0,0,2.1-1.7C339.8,43.3,339.8,43,339.9,42.7Z" style="fill: #fff"/>
          <path d="M348.7,44.8a2.4,2.4,0,0,0,.9-1.1h.6c.2.1.2.2.1.3a2.9,2.9,0,0,1-1.2,1.5,3.9,3.9,0,0,1-2,.5,3.2,3.2,0,0,1-2-.6,3,3,0,0,1-1.2-1.7,7.2,7.2,0,0,1-.2-2.3V40.1a1.9,1.9,0,0,1,.1-.8,2.9,2.9,0,0,1,1.2-1.8,3,3,0,0,1,2.1-.7,3.3,3.3,0,0,1,2.3.7,3.6,3.6,0,0,1,1.1,2.1c0,.2.1.4.1.7v1.2a.2.2,0,0,1-.2.2h-5.8a5.8,5.8,0,0,0,.1,1.5,2.2,2.2,0,0,0,.8,1.3,2.5,2.5,0,0,0,1.7.6A3.3,3.3,0,0,0,348.7,44.8Zm-4.1-3.9h5.1c0-.6-.1-1.1-.1-1.4a3.1,3.1,0,0,0-.9-1.4,2.8,2.8,0,0,0-3.2,0,2.5,2.5,0,0,0-.8,1.4A4.5,4.5,0,0,0,344.6,40.9Z" style="fill: #fff"/>
          <path d="M353.4,45.8c-.1-.1-.1-.1-.1-.2V33.7c0-.1,0-.1.1-.2h.8c0,.1.1.1.1.2V45.6c0,.1-.1.1-.1.2h-.8Z" style="fill: #fff"/>
          <path d="M357.4,45.8c0-.1-.1-.1-.1-.2V33.7c0-.1.1-.1.1-.2h.8c0,.1.1.1.1.2V45.6c0,.1-.1.1-.1.2h-.8Z" style="fill: #fff"/>
          <path d="M361.4,34.9a.5.5,0,0,1-.3-.5.9.9,0,0,1,.3-.6l.5-.2a.8.8,0,0,1,.6.2.9.9,0,0,1,.3.6.5.5,0,0,1-.3.5.6.6,0,0,1-.6.3A.5.5,0,0,1,361.4,34.9Zm.1,10.9V37h.9v8.8h-.9Z" style="fill: #fff"/>
          <path d="M371.3,37.6a2.9,2.9,0,0,1,.8,2.2v6h-.8c-.1-.1-.1-.1-.1-.2V40a2.4,2.4,0,0,0-.6-1.7,2.4,2.4,0,0,0-3.4,0,2.4,2.4,0,0,0-.6,1.7v5.6c0,.1-.1.1-.1.2h-.8c-.1-.1-.1-.1-.1-.2V37.2c0-.1,0-.2.1-.2h.8a.3.3,0,0,1,.1.2V38h0a2.4,2.4,0,0,1,1.1-.9,3.2,3.2,0,0,1,1.4-.3A3.1,3.1,0,0,1,371.3,37.6Z" style="fill: #fff"/>
          <path d="M380.7,37h.8v8.6a3.5,3.5,0,0,1-1.1,2.9,5.7,5.7,0,0,1-3.4.9c-.2-.1-.2-.1-.2-.3v-.4c0-.2.1-.2.2-.2a3.8,3.8,0,0,0,2.7-.7,2.5,2.5,0,0,0,.9-2.2v-.9h-.1a2.6,2.6,0,0,1-2.4,1.2,3.4,3.4,0,0,1-2-.6,3,3,0,0,1-1.2-1.7,10.9,10.9,0,0,1-.2-2.2,6.7,6.7,0,0,1,.3-2.3,2.7,2.7,0,0,1,1.1-1.7,3.2,3.2,0,0,1,2-.6,2.7,2.7,0,0,1,2.4,1.2h.1v-.8C380.6,37.1,380.6,37,380.7,37Zm-.1,5.6V40.2a1.5,1.5,0,0,0-.1-.7,2.3,2.3,0,0,0-2.3-1.9,2,2,0,0,0-1.5.6,3,3,0,0,0-.9,1.3,9.2,9.2,0,0,0-.1,1.9,8.2,8.2,0,0,0,.1,1.8,2.6,2.6,0,0,0,.9,1.4,2.5,2.5,0,0,0,1.5.5,2.5,2.5,0,0,0,1.6-.5,2.3,2.3,0,0,0,.7-1.4C380.6,43.1,380.6,42.8,380.6,42.6Z" style="fill: #fff"/>
        </g>
      </g>
    </g>
  </g>
</svg>
