<?xml version="1.0" encoding="utf-8"?>
<!-- Generator: Adobe Illustrator 23.0.2, SVG Export Plug-In . SVG Version: 6.00 Build 0)  -->
<svg version="1.1" id="Layer_1" xmlns="http://www.w3.org/2000/svg" xmlns:xlink="http://www.w3.org/1999/xlink" x="0px" y="0px"
	 viewBox="0 0 775.5 167.5" style="enable-background:new 0 0 775.5 167.5;" xml:space="preserve">
<style type="text/css">
	.st0{fill:none;}
	.st1{enable-background:new    ;}
	.st2{fill:#FFFFFF;}
	.st3{fill:none;stroke:#FFFFFF;stroke-miterlimit:10;}
</style>
<rect x="272.1" y="10.7" class="st0" width="503.4" height="156.8"/>
<g class="st1">
	<path class="st2" d="M282.2,46.5l-9.5-35.8h4.9l5.4,23.5c0.6,2.5,1.1,4.9,1.5,7.3c0.9-3.8,1.4-6,1.6-6.6l6.8-24.2h5.7l5.1,18.1
		c1.3,4.5,2.2,8.7,2.8,12.7c0.5-2.3,1-4.9,1.8-7.8l5.6-23h4.8l-9.8,35.8h-4.6l-7.5-27.3c-0.6-2.3-1-3.7-1.1-4.2
		c-0.4,1.6-0.7,3-1,4.2L287,46.5H282.2z"/>
	<path class="st2" d="M322.6,15.7v-5.1h4.4v5.1H322.6z M322.6,46.5V20.5h4.4v25.9H322.6z"/>
	<path class="st2" d="M343.3,42.5l0.6,3.9c-1.2,0.3-2.3,0.4-3.3,0.4c-1.6,0-2.8-0.3-3.7-0.8s-1.5-1.2-1.9-2
		c-0.4-0.8-0.5-2.6-0.5-5.2V24h-3.2v-3.4h3.2v-6.4l4.4-2.6v9.1h4.4V24h-4.4v15.2c0,1.3,0.1,2.1,0.2,2.4c0.2,0.4,0.4,0.6,0.8,0.9
		c0.3,0.2,0.9,0.3,1.5,0.3C341.8,42.7,342.5,42.6,343.3,42.5z"/>
	<path class="st2" d="M347.6,46.5V10.7h4.4v12.8c2.1-2.4,4.6-3.6,7.8-3.6c1.9,0,3.6,0.4,5,1.1c1.4,0.8,2.4,1.8,3,3.1
		c0.6,1.3,0.9,3.3,0.9,5.8v16.4h-4.4V30c0-2.2-0.5-3.8-1.4-4.8c-1-1-2.3-1.5-4-1.5c-1.3,0-2.5,0.3-3.7,1c-1.1,0.7-2,1.6-2.5,2.7
		c-0.5,1.2-0.7,2.8-0.7,4.8v14.2H347.6z"/>
	<path class="st2" d="M398.9,42.5l0.6,3.9c-1.2,0.3-2.3,0.4-3.3,0.4c-1.6,0-2.8-0.3-3.7-0.8s-1.5-1.2-1.9-2
		c-0.4-0.8-0.5-2.6-0.5-5.2V24h-3.2v-3.4h3.2v-6.4l4.4-2.6v9.1h4.4V24h-4.4v15.2c0,1.3,0.1,2.1,0.2,2.4c0.2,0.4,0.4,0.6,0.8,0.9
		c0.3,0.2,0.8,0.3,1.5,0.3C397.4,42.7,398.1,42.6,398.9,42.5z"/>
	<path class="st2" d="M403.2,46.5V10.7h4.4v12.8c2.1-2.4,4.6-3.6,7.8-3.6c1.9,0,3.6,0.4,5,1.1c1.4,0.8,2.4,1.8,3,3.1
		c0.6,1.3,0.9,3.3,0.9,5.8v16.4h-4.4V30c0-2.2-0.5-3.8-1.4-4.8c-1-1-2.3-1.5-4-1.5c-1.3,0-2.5,0.3-3.7,1c-1.1,0.7-2,1.6-2.5,2.7
		c-0.5,1.2-0.7,2.8-0.7,4.8v14.2H403.2z"/>
	<path class="st2" d="M448.7,38.1l4.5,0.6c-0.7,2.7-2,4.7-4,6.2s-4.4,2.2-7.4,2.2c-3.8,0-6.8-1.2-9-3.5c-2.2-2.3-3.3-5.6-3.3-9.8
		c0-4.4,1.1-7.7,3.4-10.2c2.2-2.4,5.2-3.6,8.7-3.6c3.5,0,6.3,1.2,8.5,3.5c2.2,2.4,3.3,5.7,3.3,10c0,0.3,0,0.7,0,1.2H434
		c0.2,2.8,1,5,2.4,6.5c1.4,1.5,3.3,2.3,5.4,2.3c1.6,0,3-0.4,4.1-1.3C447.1,41.3,448,40,448.7,38.1z M434.3,31h14.5
		c-0.2-2.2-0.7-3.8-1.7-4.9c-1.4-1.7-3.2-2.5-5.4-2.5c-2,0-3.7,0.7-5.1,2C435.2,26.9,434.4,28.7,434.3,31z"/>
	<path class="st2" d="M470.9,38.7l4.3-0.7c0.2,1.7,0.9,3.1,2,4s2.7,1.4,4.7,1.4c2,0,3.5-0.4,4.5-1.2c1-0.8,1.5-1.8,1.5-2.9
		c0-1-0.4-1.8-1.3-2.3c-0.6-0.4-2.1-0.9-4.5-1.5c-3.2-0.8-5.5-1.5-6.7-2.1c-1.2-0.6-2.2-1.4-2.8-2.5c-0.6-1-1-2.2-1-3.5
		c0-1.2,0.3-2.2,0.8-3.2c0.5-1,1.2-1.8,2.2-2.5c0.7-0.5,1.6-0.9,2.8-1.3c1.2-0.4,2.4-0.5,3.8-0.5c2,0,3.8,0.3,5.4,0.9
		c1.5,0.6,2.7,1.4,3.4,2.4c0.7,1,1.2,2.3,1.5,4l-4.3,0.6c-0.2-1.3-0.8-2.4-1.7-3.1c-0.9-0.7-2.3-1.1-4-1.1c-2,0-3.5,0.3-4.3,1
		c-0.9,0.7-1.3,1.4-1.3,2.3c0,0.6,0.2,1.1,0.5,1.5c0.4,0.5,0.9,0.9,1.7,1.2c0.4,0.2,1.7,0.5,3.9,1.1c3.1,0.8,5.3,1.5,6.5,2
		c1.2,0.5,2.2,1.3,2.9,2.3c0.7,1,1,2.3,1,3.8c0,1.5-0.4,2.8-1.3,4.1c-0.9,1.3-2.1,2.3-3.7,3c-1.6,0.7-3.4,1.1-5.5,1.1
		c-3.4,0-5.9-0.7-7.7-2.1C472.5,43.5,471.4,41.5,470.9,38.7z"/>
	<path class="st2" d="M514.6,46.5v-3.8c-2,2.9-4.8,4.4-8.2,4.4c-1.5,0-3-0.3-4.3-0.9s-2.3-1.3-3-2.2c-0.6-0.9-1.1-2-1.4-3.3
		c-0.2-0.9-0.3-2.2-0.3-4.1V20.5h4.4v14.4c0,2.3,0.1,3.8,0.3,4.6c0.3,1.2,0.9,2.1,1.8,2.7c0.9,0.7,2,1,3.3,1s2.6-0.3,3.7-1
		c1.2-0.7,2-1.6,2.5-2.8c0.5-1.2,0.7-2.9,0.7-5.1V20.5h4.4v25.9H514.6z"/>
	<path class="st2" d="M525.5,56.4V20.5h4v3.4c0.9-1.3,2-2.3,3.2-3c1.2-0.7,2.6-1,4.3-1c2.2,0,4.2,0.6,5.9,1.7c1.7,1.1,3,2.7,3.8,4.8
		c0.9,2.1,1.3,4.3,1.3,6.8c0,2.7-0.5,5-1.4,7.2c-1,2.1-2.3,3.8-4.2,4.9c-1.8,1.1-3.7,1.7-5.7,1.7c-1.5,0-2.8-0.3-3.9-0.9
		c-1.2-0.6-2.1-1.4-2.9-2.3v12.6H525.5z M529.4,33.6c0,3.3,0.7,5.8,2,7.4c1.4,1.6,3,2.4,4.9,2.4c2,0,3.6-0.8,5-2.5
		c1.4-1.7,2.1-4.2,2.1-7.7c0-3.3-0.7-5.8-2-7.4c-1.4-1.6-3-2.5-4.9-2.5c-1.9,0-3.5,0.9-5,2.6C530.2,27.8,529.4,30.3,529.4,33.6z"/>
	<path class="st2" d="M553.3,56.4V20.5h4v3.4c0.9-1.3,2-2.3,3.2-3c1.2-0.7,2.6-1,4.3-1c2.2,0,4.2,0.6,5.9,1.7c1.7,1.1,3,2.7,3.8,4.8
		c0.9,2.1,1.3,4.3,1.3,6.8c0,2.7-0.5,5-1.4,7.2c-1,2.1-2.3,3.8-4.1,4.9c-1.8,1.1-3.7,1.7-5.7,1.7c-1.5,0-2.8-0.3-3.9-0.9
		s-2.1-1.4-2.9-2.3v12.6H553.3z M557.3,33.6c0,3.3,0.7,5.8,2,7.4c1.4,1.6,3,2.4,4.9,2.4c2,0,3.6-0.8,5-2.5c1.4-1.7,2.1-4.2,2.1-7.7
		c0-3.3-0.7-5.8-2-7.4c-1.4-1.6-3-2.5-4.9-2.5c-1.9,0-3.5,0.9-5,2.6C558,27.8,557.3,30.3,557.3,33.6z"/>
	<path class="st2" d="M579.4,33.5c0-4.8,1.3-8.4,4-10.7c2.2-1.9,4.9-2.9,8.2-2.9c3.6,0,6.5,1.2,8.7,3.5c2.3,2.3,3.4,5.6,3.4,9.7
		c0,3.3-0.5,6-1.5,7.9c-1,1.9-2.5,3.4-4.4,4.5c-1.9,1.1-4,1.6-6.3,1.6c-3.6,0-6.6-1.2-8.8-3.5C580.6,41.2,579.4,37.9,579.4,33.5z
		 M584,33.5c0,3.3,0.7,5.8,2.2,7.5c1.4,1.7,3.3,2.5,5.5,2.5c2.2,0,4-0.8,5.4-2.5c1.4-1.7,2.2-4.2,2.2-7.6c0-3.2-0.7-5.6-2.2-7.3
		c-1.5-1.7-3.3-2.5-5.4-2.5c-2.2,0-4,0.8-5.5,2.5C584.7,27.7,584,30.2,584,33.5z"/>
	<path class="st2" d="M608.8,46.5V20.5h4v3.9c1-1.8,1.9-3.1,2.8-3.6c0.9-0.6,1.8-0.9,2.8-0.9c1.5,0,3,0.5,4.5,1.4l-1.5,4.1
		c-1.1-0.6-2.1-1-3.2-1c-1,0-1.8,0.3-2.6,0.9c-0.8,0.6-1.3,1.4-1.6,2.4c-0.5,1.6-0.7,3.3-0.7,5.1v13.6H608.8z"/>
	<path class="st2" d="M635.1,42.5l0.6,3.9c-1.2,0.3-2.3,0.4-3.3,0.4c-1.6,0-2.8-0.3-3.7-0.8s-1.5-1.2-1.9-2
		c-0.4-0.8-0.5-2.6-0.5-5.2V24h-3.2v-3.4h3.2v-6.4l4.4-2.6v9.1h4.4V24h-4.4v15.2c0,1.3,0.1,2.1,0.2,2.4c0.2,0.4,0.4,0.6,0.8,0.9
		c0.3,0.2,0.8,0.3,1.5,0.3C633.7,42.7,634.3,42.6,635.1,42.5z"/>
	<path class="st2" d="M651.7,33.5c0-4.8,1.3-8.4,4-10.7c2.2-1.9,4.9-2.9,8.2-2.9c3.6,0,6.5,1.2,8.7,3.5c2.3,2.3,3.4,5.6,3.4,9.7
		c0,3.3-0.5,6-1.5,7.9c-1,1.9-2.5,3.4-4.4,4.5c-1.9,1.1-4,1.6-6.3,1.6c-3.6,0-6.6-1.2-8.8-3.5C652.8,41.2,651.7,37.9,651.7,33.5z
		 M656.2,33.5c0,3.3,0.7,5.8,2.2,7.5c1.4,1.7,3.3,2.5,5.5,2.5c2.2,0,4-0.8,5.4-2.5c1.4-1.7,2.2-4.2,2.2-7.6c0-3.2-0.7-5.6-2.2-7.3
		c-1.5-1.7-3.3-2.5-5.4-2.5c-2.2,0-4,0.8-5.5,2.5C656.9,27.7,656.2,30.2,656.2,33.5z"/>
	<path class="st2" d="M682.2,46.5V24h-3.9v-3.4h3.9v-2.8c0-1.7,0.2-3,0.5-3.9c0.4-1.1,1.2-2.1,2.2-2.8c1.1-0.7,2.6-1.1,4.5-1.1
		c1.2,0,2.6,0.1,4.1,0.4l-0.7,3.8c-0.9-0.2-1.8-0.2-2.6-0.2c-1.3,0-2.3,0.3-2.8,0.9c-0.6,0.6-0.8,1.6-0.8,3.2v2.4h5.1V24h-5.1v22.5
		H682.2z"/>
	<path class="st2" d="M718.5,42.5l0.6,3.9c-1.2,0.3-2.3,0.4-3.3,0.4c-1.6,0-2.8-0.3-3.7-0.8s-1.5-1.2-1.9-2
		c-0.4-0.8-0.5-2.6-0.5-5.2V24h-3.2v-3.4h3.2v-6.4l4.4-2.6v9.1h4.4V24h-4.4v15.2c0,1.3,0.1,2.1,0.2,2.4c0.2,0.4,0.4,0.6,0.8,0.9
		c0.3,0.2,0.8,0.3,1.5,0.3C717.1,42.7,717.7,42.6,718.5,42.5z"/>
	<path class="st2" d="M722.8,46.5V10.7h4.4v12.8c2.1-2.4,4.6-3.6,7.8-3.6c1.9,0,3.6,0.4,5,1.1c1.4,0.8,2.4,1.8,3,3.1
		c0.6,1.3,0.9,3.3,0.9,5.8v16.4h-4.4V30c0-2.2-0.5-3.8-1.4-4.8c-1-1-2.3-1.5-4-1.5c-1.3,0-2.5,0.3-3.7,1c-1.1,0.7-2,1.6-2.5,2.7
		c-0.5,1.2-0.7,2.8-0.7,4.8v14.2H722.8z"/>
	<path class="st2" d="M768.4,38.1l4.5,0.6c-0.7,2.7-2,4.7-4,6.2c-1.9,1.5-4.4,2.2-7.4,2.2c-3.8,0-6.8-1.2-9-3.5
		c-2.2-2.3-3.3-5.6-3.3-9.8c0-4.4,1.1-7.7,3.4-10.2c2.2-2.4,5.2-3.6,8.7-3.6c3.5,0,6.3,1.2,8.5,3.5c2.2,2.4,3.3,5.7,3.3,10
		c0,0.3,0,0.7,0,1.2h-19.3c0.2,2.8,1,5,2.4,6.5c1.4,1.5,3.3,2.3,5.4,2.3c1.6,0,3-0.4,4.1-1.3C766.8,41.3,767.7,40,768.4,38.1z
		 M753.9,31h14.5c-0.2-2.2-0.7-3.8-1.7-4.9c-1.4-1.7-3.2-2.5-5.4-2.5c-2,0-3.7,0.7-5.1,2C754.8,26.9,754.1,28.7,753.9,31z"/>
</g>
<g class="st1">
	<path class="st2" d="M276,101.5V65.7h25.9v4.2h-21.1v11h19.8v4.2h-19.8v12.2h22v4.2H276z"/>
	<path class="st2" d="M308.7,101.5V75.5h4v3.9c1-1.8,1.9-3.1,2.8-3.6s1.8-0.9,2.8-0.9c1.5,0,3,0.5,4.5,1.4l-1.5,4.1
		c-1.1-0.6-2.1-1-3.2-1c-1,0-1.8,0.3-2.6,0.9c-0.8,0.6-1.3,1.4-1.6,2.4c-0.5,1.6-0.7,3.3-0.7,5.1v13.6H308.7z"/>
	<path class="st2" d="M342.3,98.3c-1.6,1.4-3.2,2.4-4.7,2.9c-1.5,0.6-3.1,0.9-4.8,0.9c-2.8,0-5-0.7-6.6-2.1
		c-1.5-1.4-2.3-3.2-2.3-5.3c0-1.3,0.3-2.4,0.9-3.5c0.6-1.1,1.3-1.9,2.3-2.5c0.9-0.6,2-1.1,3.2-1.4c0.9-0.2,2.2-0.4,3.9-0.7
		c3.5-0.4,6.2-0.9,7.8-1.5c0-0.6,0-1,0-1.1c0-1.8-0.4-3.1-1.2-3.8c-1.1-1-2.8-1.5-5-1.5c-2.1,0-3.6,0.4-4.6,1.1
		c-1,0.7-1.7,2-2.2,3.8l-4.3-0.6c0.4-1.8,1-3.3,1.9-4.5c0.9-1.1,2.2-2,3.9-2.6c1.7-0.6,3.7-0.9,5.9-0.9c2.2,0,4,0.3,5.4,0.8
		c1.4,0.5,2.4,1.2,3.1,2c0.7,0.8,1.1,1.8,1.4,3c0.1,0.7,0.2,2.1,0.2,4.1v5.9c0,4.1,0.1,6.7,0.3,7.8c0.2,1.1,0.6,2.1,1.1,3.1h-4.6
		C342.7,100.5,342.4,99.5,342.3,98.3z M341.9,88.4c-1.6,0.7-4,1.2-7.2,1.7c-1.8,0.3-3.1,0.6-3.8,0.9c-0.7,0.3-1.3,0.8-1.7,1.4
		c-0.4,0.6-0.6,1.3-0.6,2.1c0,1.2,0.4,2.1,1.3,2.9c0.9,0.8,2.2,1.2,3.9,1.2c1.7,0,3.2-0.4,4.5-1.1c1.3-0.7,2.3-1.8,2.9-3
		c0.5-1,0.7-2.5,0.7-4.4V88.4z"/>
	<path class="st2" d="M351.4,93.7l4.3-0.7c0.2,1.7,0.9,3.1,2,4c1.1,0.9,2.7,1.4,4.7,1.4c2,0,3.5-0.4,4.5-1.2c1-0.8,1.5-1.8,1.5-2.9
		c0-1-0.4-1.8-1.3-2.3c-0.6-0.4-2.1-0.9-4.5-1.5c-3.2-0.8-5.5-1.5-6.7-2.1c-1.2-0.6-2.2-1.4-2.8-2.5c-0.6-1-1-2.2-1-3.5
		c0-1.2,0.3-2.2,0.8-3.2c0.5-1,1.2-1.8,2.2-2.5c0.7-0.5,1.6-0.9,2.8-1.3c1.2-0.4,2.4-0.5,3.8-0.5c2,0,3.8,0.3,5.4,0.9
		s2.7,1.4,3.4,2.4c0.7,1,1.2,2.3,1.5,4l-4.3,0.6c-0.2-1.3-0.8-2.4-1.7-3.1c-0.9-0.7-2.3-1.1-4-1.1c-2,0-3.5,0.3-4.3,1
		c-0.9,0.7-1.3,1.4-1.3,2.3c0,0.6,0.2,1.1,0.5,1.5c0.4,0.5,0.9,0.9,1.7,1.2c0.4,0.2,1.7,0.5,3.9,1.1c3.1,0.8,5.3,1.5,6.5,2
		c1.2,0.5,2.2,1.3,2.9,2.3c0.7,1,1,2.3,1,3.8c0,1.5-0.4,2.8-1.3,4.1c-0.9,1.3-2.1,2.3-3.7,3c-1.6,0.7-3.4,1.1-5.5,1.1
		c-3.4,0-5.9-0.7-7.7-2.1C353,98.5,351.9,96.5,351.4,93.7z"/>
	<path class="st2" d="M378.2,101.5V75.5h3.9v3.6c0.8-1.3,1.9-2.3,3.2-3.1c1.4-0.8,2.9-1.2,4.6-1.2c1.9,0,3.5,0.4,4.7,1.2
		c1.2,0.8,2.1,1.9,2.6,3.3c2.1-3,4.7-4.5,8-4.5c2.6,0,4.5,0.7,5.9,2.1c1.4,1.4,2.1,3.6,2.1,6.6v17.8h-4.4V85.1c0-1.8-0.1-3-0.4-3.8
		c-0.3-0.8-0.8-1.4-1.6-1.9c-0.7-0.5-1.6-0.7-2.6-0.7c-1.8,0-3.3,0.6-4.5,1.8c-1.2,1.2-1.8,3.2-1.8,5.8v15.1h-4.4V84.6
		c0-2-0.4-3.4-1.1-4.4c-0.7-1-1.9-1.5-3.5-1.5c-1.2,0-2.4,0.3-3.4,1c-1,0.7-1.8,1.6-2.3,2.9c-0.5,1.3-0.7,3.1-0.7,5.4v13.5H378.2z"
		/>
	<path class="st2" d="M436.8,101.5v-3.8c-2,2.9-4.8,4.4-8.2,4.4c-1.5,0-3-0.3-4.3-0.9s-2.3-1.3-3-2.2c-0.6-0.9-1.1-2-1.4-3.3
		c-0.2-0.9-0.3-2.2-0.3-4.1V75.5h4.4v14.4c0,2.3,0.1,3.8,0.3,4.6c0.3,1.2,0.9,2.1,1.8,2.7c0.9,0.7,2,1,3.3,1s2.6-0.3,3.7-1
		c1.2-0.7,2-1.6,2.5-2.8c0.5-1.2,0.7-2.9,0.7-5.1V75.5h4.4v25.9H436.8z"/>
	<path class="st2" d="M445.9,93.7l4.3-0.7c0.2,1.7,0.9,3.1,2,4c1.1,0.9,2.7,1.4,4.7,1.4c2,0,3.5-0.4,4.5-1.2c1-0.8,1.5-1.8,1.5-2.9
		c0-1-0.4-1.8-1.3-2.3c-0.6-0.4-2.1-0.9-4.5-1.5c-3.2-0.8-5.5-1.5-6.7-2.1c-1.2-0.6-2.2-1.4-2.8-2.5c-0.6-1-1-2.2-1-3.5
		c0-1.2,0.3-2.2,0.8-3.2c0.5-1,1.3-1.8,2.2-2.5c0.7-0.5,1.6-0.9,2.8-1.3c1.2-0.4,2.4-0.5,3.8-0.5c2,0,3.8,0.3,5.4,0.9
		c1.5,0.6,2.7,1.4,3.4,2.4c0.7,1,1.2,2.3,1.5,4l-4.3,0.6c-0.2-1.3-0.8-2.4-1.7-3.1c-0.9-0.7-2.3-1.1-4-1.1c-2,0-3.5,0.3-4.3,1
		c-0.9,0.7-1.3,1.4-1.3,2.3c0,0.6,0.2,1.1,0.5,1.5c0.4,0.5,0.9,0.9,1.7,1.2c0.4,0.2,1.7,0.5,3.9,1.1c3.1,0.8,5.3,1.5,6.5,2
		c1.2,0.5,2.2,1.3,2.9,2.3c0.7,1,1,2.3,1,3.8c0,1.5-0.4,2.8-1.3,4.1c-0.9,1.3-2.1,2.3-3.7,3c-1.6,0.7-3.4,1.1-5.5,1.1
		c-3.4,0-5.9-0.7-7.7-2.1C447.5,98.5,446.4,96.5,445.9,93.7z"/>
	<path class="st2" d="M481.9,95.7v-9.8h-9.7v-4.1h9.7V72h4.2v9.7h9.7v4.1H486v9.8H481.9z"/>
	<path class="st2" d="M516.3,101.5V65.7h13.5c2.4,0,4.2,0.1,5.4,0.3c1.8,0.3,3.2,0.9,4.4,1.7c1.2,0.8,2.1,2,2.9,3.5
		c0.7,1.5,1.1,3.1,1.1,4.9c0,3-1,5.6-2.9,7.7c-1.9,2.1-5.4,3.2-10.5,3.2H521v14.6H516.3z M521,82.7h9.3c3.1,0,5.2-0.6,6.5-1.7
		c1.3-1.1,1.9-2.7,1.9-4.8c0-1.5-0.4-2.8-1.1-3.8c-0.8-1.1-1.8-1.8-3-2.1c-0.8-0.2-2.3-0.3-4.4-0.3H521V82.7z"/>
	<path class="st2" d="M549,101.5V75.5h4v3.9c1-1.8,1.9-3.1,2.8-3.6c0.9-0.6,1.8-0.9,2.8-0.9c1.5,0,3,0.5,4.5,1.4l-1.5,4.1
		c-1.1-0.6-2.1-1-3.2-1c-1,0-1.8,0.3-2.6,0.9c-0.8,0.6-1.3,1.4-1.6,2.4c-0.5,1.6-0.7,3.3-0.7,5.1v13.6H549z"/>
	<path class="st2" d="M564.1,88.5c0-4.8,1.3-8.4,4-10.7c2.2-1.9,4.9-2.9,8.2-2.9c3.6,0,6.5,1.2,8.7,3.5c2.3,2.3,3.4,5.6,3.4,9.7
		c0,3.3-0.5,6-1.5,7.9c-1,1.9-2.5,3.4-4.4,4.5c-1.9,1.1-4,1.6-6.3,1.6c-3.6,0-6.6-1.2-8.8-3.5C565.2,96.2,564.1,92.9,564.1,88.5z
		 M568.6,88.5c0,3.3,0.7,5.8,2.2,7.5c1.4,1.7,3.3,2.5,5.5,2.5c2.2,0,4-0.8,5.4-2.5c1.4-1.7,2.2-4.2,2.2-7.6c0-3.2-0.7-5.6-2.2-7.3
		c-1.5-1.7-3.3-2.5-5.4-2.5c-2.2,0-4,0.8-5.5,2.5C569.3,82.7,568.6,85.2,568.6,88.5z"/>
	<path class="st2" d="M592.7,103.6l4.3,0.6c0.2,1.3,0.7,2.3,1.5,2.9c1.1,0.8,2.6,1.2,4.5,1.2c2,0,3.6-0.4,4.7-1.2
		c1.1-0.8,1.9-2,2.2-3.4c0.2-0.9,0.3-2.8,0.3-5.6c-1.9,2.3-4.3,3.4-7.2,3.4c-3.6,0-6.3-1.3-8.3-3.9c-2-2.6-2.9-5.7-2.9-9.3
		c0-2.5,0.4-4.8,1.3-6.8c0.9-2.1,2.2-3.7,3.9-4.8c1.7-1.1,3.7-1.7,6-1.7c3.1,0,5.6,1.2,7.6,3.7v-3.1h4.1v22.4c0,4-0.4,6.9-1.2,8.6
		c-0.8,1.7-2.1,3-3.9,4c-1.8,1-4,1.5-6.6,1.5c-3.1,0-5.6-0.7-7.5-2.1C593.6,108.5,592.7,106.4,592.7,103.6z M596.4,88
		c0,3.4,0.7,5.9,2,7.4c1.4,1.6,3,2.3,5.1,2.3c2,0,3.7-0.8,5.1-2.3c1.4-1.6,2.1-4,2.1-7.3c0-3.2-0.7-5.6-2.1-7.2
		c-1.4-1.6-3.1-2.4-5.1-2.4c-2,0-3.6,0.8-5,2.4C597,82.6,596.4,84.9,596.4,88z"/>
	<path class="st2" d="M621.3,101.5V75.5h4v3.9c1-1.8,1.9-3.1,2.8-3.6c0.9-0.6,1.8-0.9,2.8-0.9c1.5,0,3,0.5,4.5,1.4l-1.5,4.1
		c-1.1-0.6-2.1-1-3.2-1c-1,0-1.8,0.3-2.6,0.9c-0.8,0.6-1.3,1.4-1.6,2.4c-0.5,1.6-0.7,3.3-0.7,5.1v13.6H621.3z"/>
	<path class="st2" d="M654.9,98.3c-1.6,1.4-3.2,2.4-4.7,2.9c-1.5,0.6-3.1,0.9-4.8,0.9c-2.8,0-5-0.7-6.6-2.1
		c-1.5-1.4-2.3-3.2-2.3-5.3c0-1.3,0.3-2.4,0.9-3.5c0.6-1.1,1.3-1.9,2.3-2.5c0.9-0.6,2-1.1,3.2-1.4c0.9-0.2,2.2-0.4,3.9-0.7
		c3.5-0.4,6.2-0.9,7.8-1.5c0-0.6,0-1,0-1.1c0-1.8-0.4-3.1-1.2-3.8c-1.1-1-2.8-1.5-5-1.5c-2.1,0-3.6,0.4-4.6,1.1
		c-1,0.7-1.7,2-2.2,3.8l-4.3-0.6c0.4-1.8,1-3.3,1.9-4.5c0.9-1.1,2.2-2,3.9-2.6c1.7-0.6,3.7-0.9,5.9-0.9c2.2,0,4,0.3,5.4,0.8
		c1.4,0.5,2.4,1.2,3.1,2c0.7,0.8,1.1,1.8,1.4,3c0.1,0.7,0.2,2.1,0.2,4.1v5.9c0,4.1,0.1,6.7,0.3,7.8c0.2,1.1,0.6,2.1,1.1,3.1h-4.6
		C655.3,100.5,655,99.5,654.9,98.3z M654.5,88.4c-1.6,0.7-4,1.2-7.2,1.7c-1.8,0.3-3.1,0.6-3.8,0.9c-0.7,0.3-1.3,0.8-1.7,1.4
		c-0.4,0.6-0.6,1.3-0.6,2.1c0,1.2,0.4,2.1,1.3,2.9c0.9,0.8,2.2,1.2,3.9,1.2c1.7,0,3.2-0.4,4.5-1.1c1.3-0.7,2.3-1.8,2.9-3
		c0.5-1,0.7-2.5,0.7-4.4V88.4z"/>
	<path class="st2" d="M665.8,101.5V75.5h3.9v3.6c0.8-1.3,1.9-2.3,3.2-3.1c1.4-0.8,2.9-1.2,4.6-1.2c1.9,0,3.5,0.4,4.7,1.2
		c1.2,0.8,2.1,1.9,2.6,3.3c2.1-3,4.7-4.5,8-4.5c2.6,0,4.5,0.7,5.9,2.1c1.4,1.4,2.1,3.6,2.1,6.6v17.8h-4.4V85.1c0-1.8-0.1-3-0.4-3.8
		c-0.3-0.8-0.8-1.4-1.6-1.9c-0.7-0.5-1.6-0.7-2.6-0.7c-1.8,0-3.3,0.6-4.5,1.8c-1.2,1.2-1.8,3.2-1.8,5.8v15.1h-4.4V84.6
		c0-2-0.4-3.4-1.1-4.4c-0.7-1-1.9-1.5-3.5-1.5c-1.2,0-2.4,0.3-3.4,1c-1.1,0.7-1.8,1.6-2.3,2.9c-0.5,1.3-0.7,3.1-0.7,5.4v13.5H665.8z
		"/>
	<path class="st2" d="M707.4,101.5V75.5h3.9v3.6c0.8-1.3,1.9-2.3,3.2-3.1c1.4-0.8,2.9-1.2,4.6-1.2c1.9,0,3.5,0.4,4.7,1.2
		c1.2,0.8,2.1,1.9,2.6,3.3c2.1-3,4.7-4.5,8-4.5c2.6,0,4.5,0.7,5.9,2.1c1.4,1.4,2.1,3.6,2.1,6.6v17.8h-4.4V85.1c0-1.8-0.1-3-0.4-3.8
		c-0.3-0.8-0.8-1.4-1.6-1.9c-0.7-0.5-1.6-0.7-2.6-0.7c-1.8,0-3.3,0.6-4.5,1.8c-1.2,1.2-1.8,3.2-1.8,5.8v15.1h-4.4V84.6
		c0-2-0.4-3.4-1.1-4.4c-0.7-1-1.9-1.5-3.5-1.5c-1.2,0-2.4,0.3-3.4,1c-1.1,0.7-1.8,1.6-2.3,2.9c-0.5,1.3-0.7,3.1-0.7,5.4v13.5H707.4z
		"/>
	<path class="st2" d="M766.8,93.1l4.5,0.6c-0.7,2.7-2,4.7-4,6.2c-1.9,1.5-4.4,2.2-7.4,2.2c-3.8,0-6.8-1.2-9-3.5
		c-2.2-2.3-3.3-5.6-3.3-9.8c0-4.4,1.1-7.7,3.4-10.2c2.2-2.4,5.2-3.6,8.7-3.6c3.5,0,6.3,1.2,8.5,3.5c2.2,2.4,3.3,5.7,3.3,10
		c0,0.3,0,0.7,0,1.2h-19.3c0.2,2.8,1,5,2.4,6.5c1.4,1.5,3.3,2.3,5.4,2.3c1.6,0,3-0.4,4.1-1.3C765.3,96.3,766.2,95,766.8,93.1z
		 M752.4,86h14.5c-0.2-2.2-0.7-3.8-1.7-4.9c-1.4-1.7-3.2-2.5-5.4-2.5c-2,0-3.7,0.7-5.1,2C753.3,81.9,752.6,83.7,752.4,86z"/>
</g>
<g class="st1">
	<path class="st2" d="M273.7,143.5c0-4.8,1.3-8.4,4-10.7c2.2-1.9,4.9-2.9,8.2-2.9c3.6,0,6.5,1.2,8.7,3.5c2.3,2.3,3.4,5.6,3.4,9.7
		c0,3.3-0.5,6-1.5,7.9c-1,1.9-2.5,3.4-4.4,4.5c-1.9,1.1-4,1.6-6.3,1.6c-3.6,0-6.6-1.2-8.8-3.5C274.9,151.2,273.7,147.9,273.7,143.5z
		 M278.2,143.5c0,3.3,0.7,5.8,2.2,7.5c1.4,1.7,3.3,2.5,5.5,2.5c2.2,0,4-0.8,5.4-2.5c1.4-1.7,2.2-4.2,2.2-7.6c0-3.2-0.7-5.6-2.2-7.3
		c-1.5-1.7-3.3-2.5-5.4-2.5c-2.2,0-4,0.8-5.5,2.5C279,137.7,278.2,140.2,278.2,143.5z"/>
	<path class="st2" d="M304.2,156.5V134h-3.9v-3.4h3.9v-2.8c0-1.7,0.2-3,0.5-3.9c0.4-1.1,1.2-2.1,2.2-2.8c1.1-0.7,2.6-1.1,4.5-1.1
		c1.2,0,2.6,0.1,4.1,0.4l-0.7,3.8c-0.9-0.2-1.8-0.2-2.6-0.2c-1.3,0-2.3,0.3-2.8,0.9c-0.6,0.6-0.8,1.6-0.8,3.2v2.4h5.1v3.4h-5.1v22.5
		H304.2z"/>
	<path class="st2" d="M340.6,152.5l0.6,3.9c-1.2,0.3-2.3,0.4-3.3,0.4c-1.6,0-2.8-0.3-3.7-0.8s-1.5-1.2-1.9-2
		c-0.4-0.8-0.5-2.6-0.5-5.2V134h-3.2v-3.4h3.2v-6.4l4.4-2.6v9.1h4.4v3.4h-4.4v15.2c0,1.3,0.1,2.1,0.2,2.4c0.2,0.4,0.4,0.6,0.8,0.9
		c0.3,0.2,0.9,0.3,1.5,0.3C339.1,152.7,339.8,152.6,340.6,152.5z"/>
	<path class="st2" d="M344.8,156.5v-35.8h4.4v12.8c2.1-2.4,4.6-3.6,7.8-3.6c1.9,0,3.6,0.4,5,1.1c1.4,0.8,2.4,1.8,3,3.1
		c0.6,1.3,0.9,3.3,0.9,5.8v16.4h-4.4V140c0-2.2-0.5-3.8-1.4-4.8c-1-1-2.3-1.5-4-1.5c-1.3,0-2.5,0.3-3.7,1c-1.1,0.7-2,1.6-2.5,2.7
		c-0.5,1.2-0.7,2.8-0.7,4.8v14.2H344.8z"/>
	<path class="st2" d="M390.4,148.1l4.5,0.6c-0.7,2.7-2,4.7-4,6.2c-1.9,1.5-4.4,2.2-7.4,2.2c-3.8,0-6.8-1.2-9-3.5
		c-2.2-2.3-3.3-5.6-3.3-9.8c0-4.4,1.1-7.7,3.4-10.2c2.2-2.4,5.2-3.6,8.7-3.6c3.5,0,6.3,1.2,8.5,3.5c2.2,2.4,3.3,5.7,3.3,10
		c0,0.3,0,0.7,0,1.2h-19.3c0.2,2.8,1,5,2.4,6.5c1.4,1.5,3.3,2.3,5.4,2.3c1.6,0,3-0.4,4.1-1.3C388.8,151.3,389.7,150,390.4,148.1z
		 M376,141h14.5c-0.2-2.2-0.7-3.8-1.7-4.9c-1.4-1.7-3.2-2.5-5.4-2.5c-2,0-3.7,0.7-5.1,2C376.9,136.9,376.1,138.7,376,141z"/>
	<path class="st2" d="M415,156.5v-35.8h25.9v4.2h-21.1v11h19.8v4.2h-19.8v12.2h22v4.2H415z"/>
	<path class="st2" d="M464.7,156.5v-3.8c-2,2.9-4.8,4.4-8.2,4.4c-1.5,0-3-0.3-4.3-0.9s-2.3-1.3-3-2.2c-0.6-0.9-1.1-2-1.4-3.3
		c-0.2-0.9-0.3-2.2-0.3-4.1v-16.1h4.4v14.4c0,2.3,0.1,3.8,0.3,4.6c0.3,1.2,0.9,2.1,1.8,2.7c0.9,0.7,2,1,3.3,1s2.6-0.3,3.7-1
		c1.2-0.7,2-1.6,2.5-2.8c0.5-1.2,0.7-2.9,0.7-5.1v-13.9h4.4v25.9H464.7z"/>
	<path class="st2" d="M475.5,156.5v-25.9h4v3.9c1-1.8,1.9-3.1,2.8-3.6c0.9-0.6,1.8-0.9,2.8-0.9c1.5,0,3,0.5,4.5,1.4l-1.5,4.1
		c-1.1-0.6-2.1-1-3.2-1c-1,0-1.8,0.3-2.6,0.9c-0.8,0.6-1.3,1.4-1.6,2.4c-0.5,1.6-0.7,3.3-0.7,5.1v13.6H475.5z"/>
	<path class="st2" d="M490.5,143.5c0-4.8,1.3-8.4,4-10.7c2.2-1.9,4.9-2.9,8.2-2.9c3.6,0,6.5,1.2,8.7,3.5c2.3,2.3,3.4,5.6,3.4,9.7
		c0,3.3-0.5,6-1.5,7.9c-1,1.9-2.5,3.4-4.4,4.5c-1.9,1.1-4,1.6-6.3,1.6c-3.6,0-6.6-1.2-8.8-3.5C491.6,151.2,490.5,147.9,490.5,143.5z
		 M495,143.5c0,3.3,0.7,5.8,2.2,7.5c1.4,1.7,3.3,2.5,5.5,2.5c2.2,0,4-0.8,5.4-2.5c1.4-1.7,2.2-4.2,2.2-7.6c0-3.2-0.7-5.6-2.2-7.3
		c-1.5-1.7-3.3-2.5-5.4-2.5c-2.2,0-4,0.8-5.5,2.5C495.8,137.7,495,140.2,495,143.5z"/>
	<path class="st2" d="M520,166.4v-35.9h4v3.4c0.9-1.3,2-2.3,3.2-3c1.2-0.7,2.6-1,4.3-1c2.2,0,4.2,0.6,5.9,1.7c1.7,1.1,3,2.7,3.8,4.8
		c0.9,2.1,1.3,4.3,1.3,6.8c0,2.7-0.5,5-1.4,7.2c-1,2.1-2.3,3.8-4.2,4.9c-1.8,1.1-3.7,1.7-5.7,1.7c-1.5,0-2.8-0.3-3.9-0.9
		s-2.1-1.4-2.9-2.3v12.6H520z M524,143.6c0,3.3,0.7,5.8,2,7.4c1.4,1.6,3,2.4,4.9,2.4c2,0,3.6-0.8,5-2.5c1.4-1.7,2.1-4.2,2.1-7.7
		c0-3.3-0.7-5.8-2-7.4c-1.4-1.6-3-2.5-4.9-2.5c-1.9,0-3.5,0.9-5,2.6C524.7,137.8,524,140.3,524,143.6z"/>
	<path class="st2" d="M565.5,148.1l4.5,0.6c-0.7,2.7-2,4.7-4,6.2c-1.9,1.5-4.4,2.2-7.4,2.2c-3.8,0-6.8-1.2-9-3.5
		c-2.2-2.3-3.3-5.6-3.3-9.8c0-4.4,1.1-7.7,3.4-10.2c2.2-2.4,5.2-3.6,8.7-3.6c3.5,0,6.3,1.2,8.5,3.5c2.2,2.4,3.3,5.7,3.3,10
		c0,0.3,0,0.7,0,1.2h-19.3c0.2,2.8,1,5,2.4,6.5s3.3,2.3,5.4,2.3c1.6,0,3-0.4,4.1-1.3C564,151.3,564.9,150,565.5,148.1z M551.1,141
		h14.5c-0.2-2.2-0.7-3.8-1.7-4.9c-1.4-1.7-3.2-2.5-5.4-2.5c-2,0-3.7,0.7-5.1,2C552,136.9,551.2,138.7,551.1,141z"/>
	<path class="st2" d="M592.5,153.3c-1.6,1.4-3.2,2.4-4.7,2.9c-1.5,0.6-3.1,0.9-4.8,0.9c-2.8,0-5-0.7-6.6-2.1
		c-1.5-1.4-2.3-3.2-2.3-5.3c0-1.3,0.3-2.4,0.9-3.5c0.6-1.1,1.3-1.9,2.3-2.5c0.9-0.6,2-1.1,3.2-1.4c0.9-0.2,2.2-0.4,3.9-0.7
		c3.5-0.4,6.2-0.9,7.8-1.5c0-0.6,0-1,0-1.1c0-1.8-0.4-3.1-1.2-3.8c-1.1-1-2.8-1.5-5-1.5c-2.1,0-3.6,0.4-4.6,1.1
		c-1,0.7-1.7,2-2.2,3.8l-4.3-0.6c0.4-1.8,1-3.3,1.9-4.5c0.9-1.1,2.2-2,3.9-2.6c1.7-0.6,3.7-0.9,5.9-0.9c2.2,0,4,0.3,5.4,0.8
		c1.4,0.5,2.4,1.2,3.1,2c0.7,0.8,1.1,1.8,1.4,3c0.1,0.7,0.2,2.1,0.2,4.1v5.9c0,4.1,0.1,6.7,0.3,7.8c0.2,1.1,0.6,2.1,1.1,3.1h-4.6
		C592.9,155.5,592.6,154.5,592.5,153.3z M592.1,143.4c-1.6,0.7-4,1.2-7.2,1.7c-1.8,0.3-3.1,0.6-3.8,0.9c-0.7,0.3-1.3,0.8-1.7,1.4
		c-0.4,0.6-0.6,1.3-0.6,2.1c0,1.2,0.4,2.1,1.3,2.9c0.9,0.8,2.2,1.2,3.9,1.2c1.7,0,3.2-0.4,4.5-1.1c1.3-0.7,2.3-1.8,2.9-3
		c0.5-1,0.7-2.5,0.7-4.4V143.4z"/>
	<path class="st2" d="M603.4,156.5v-25.9h4v3.7c1.9-2.8,4.7-4.3,8.3-4.3c1.6,0,3,0.3,4.3,0.8c1.3,0.6,2.3,1.3,2.9,2.2
		c0.7,0.9,1.1,2,1.4,3.2c0.2,0.8,0.2,2.2,0.2,4.3v15.9h-4.4v-15.8c0-1.8-0.2-3.1-0.5-4c-0.3-0.9-0.9-1.6-1.8-2.1
		c-0.9-0.5-1.9-0.8-3.1-0.8c-1.9,0-3.5,0.6-4.8,1.8c-1.4,1.2-2,3.4-2,6.8v14.2H603.4z"/>
	<path class="st2" d="M669.1,120.7h4.7v20.7c0,3.6-0.4,6.5-1.2,8.6c-0.8,2.1-2.3,3.8-4.4,5.2c-2.1,1.3-4.9,2-8.4,2
		c-3.4,0-6.1-0.6-8.2-1.7c-2.1-1.2-3.7-2.8-4.6-5c-0.9-2.2-1.4-5.2-1.4-9v-20.7h4.7v20.7c0,3.1,0.3,5.4,0.9,6.9
		c0.6,1.5,1.6,2.6,3,3.4c1.4,0.8,3.1,1.2,5.2,1.2c3.5,0,6-0.8,7.4-2.4c1.5-1.6,2.2-4.6,2.2-9.1V120.7z"/>
	<path class="st2" d="M681.2,156.5v-25.9h4v3.7c1.9-2.8,4.7-4.3,8.3-4.3c1.6,0,3,0.3,4.3,0.8c1.3,0.6,2.3,1.3,2.9,2.2
		c0.7,0.9,1.1,2,1.4,3.2c0.2,0.8,0.2,2.2,0.2,4.3v15.9h-4.4v-15.8c0-1.8-0.2-3.1-0.5-4c-0.3-0.9-0.9-1.6-1.8-2.1
		c-0.9-0.5-1.9-0.8-3.1-0.8c-1.9,0-3.5,0.6-4.8,1.8c-1.4,1.2-2,3.4-2,6.8v14.2H681.2z"/>
	<path class="st2" d="M709,125.7v-5.1h4.4v5.1H709z M709,156.5v-25.9h4.4v25.9H709z"/>
	<path class="st2" d="M718.5,143.5c0-4.8,1.3-8.4,4-10.7c2.2-1.9,4.9-2.9,8.2-2.9c3.6,0,6.5,1.2,8.7,3.5c2.3,2.3,3.4,5.6,3.4,9.7
		c0,3.3-0.5,6-1.5,7.9c-1,1.9-2.5,3.4-4.4,4.5c-1.9,1.1-4,1.6-6.3,1.6c-3.6,0-6.6-1.2-8.8-3.5C719.6,151.2,718.5,147.9,718.5,143.5z
		 M723,143.5c0,3.3,0.7,5.8,2.2,7.5c1.4,1.7,3.3,2.5,5.5,2.5c2.2,0,4-0.8,5.4-2.5c1.4-1.7,2.2-4.2,2.2-7.6c0-3.2-0.7-5.6-2.2-7.3
		c-1.5-1.7-3.3-2.5-5.4-2.5c-2.2,0-4,0.8-5.5,2.5C723.7,137.7,723,140.2,723,143.5z"/>
	<path class="st2" d="M747.9,156.5v-25.9h4v3.7c1.9-2.8,4.7-4.3,8.3-4.3c1.6,0,3,0.3,4.3,0.8c1.3,0.6,2.3,1.3,2.9,2.2
		c0.7,0.9,1.1,2,1.4,3.2c0.2,0.8,0.2,2.2,0.2,4.3v15.9h-4.4v-15.8c0-1.8-0.2-3.1-0.5-4c-0.3-0.9-0.9-1.6-1.8-2.1
		c-0.9-0.5-1.9-0.8-3.1-0.8c-1.9,0-3.5,0.6-4.8,1.8c-1.4,1.2-2,3.4-2,6.8v14.2H747.9z"/>
</g>
<g>
	<path id="path30_2_" class="st3" d="M0.5,165.7h247.8V0.5H0.5V165.7L0.5,165.7z"/>
	<path id="path32_2_" class="st2" d="M124.4,18.9l2,6.4l6.7,0l-5.4,3.9l2.1,6.3l-5.4-4l-5.4,4l2.1-6.4l-5.4-3.9l6.7,0L124.4,18.9"/>
	<path id="path34_2_" class="st2" d="M96.9,26.2l2,6.4l6.7,0l-5.4,3.9l2.1,6.3l-5.4-4l-5.4,4l2.1-6.4l-5.4-3.9l6.7,0L96.9,26.2"/>
	<path id="path36_2_" class="st2" d="M76.7,46.4l2,6.4l6.7,0L80,56.6l2.1,6.3l-5.4-4l-5.4,4l2.1-6.4L68,52.7l6.7,0L76.7,46.4"/>
	<path id="path38_2_" class="st2" d="M69.3,73.9l2,6.4l6.7,0l-5.4,3.9l2.1,6.3l-5.4-4l-5.4,4l2.1-6.4l-5.4-3.9l6.7,0L69.3,73.9"/>
	<path id="path40_2_" class="st2" d="M76.7,101.5l2,6.4l6.7,0l-5.4,3.9l2.1,6.3l-5.4-4l-5.4,4l2.1-6.4l-5.4-3.9l6.7,0L76.7,101.5"/>
	<path id="path42_2_" class="st2" d="M96.9,121.6l2,6.4l6.7,0l-5.4,3.9l2.1,6.3l-5.4-4l-5.4,4l2.1-6.4l-5.4-3.9l6.7,0L96.9,121.6"/>
	<path id="path44_2_" class="st2" d="M124.4,129l2,6.4l6.7,0l-5.4,3.9l2.1,6.3l-5.4-4l-5.4,4l2.1-6.4l-5.4-3.9l6.7,0L124.4,129"/>
	<path id="path46_2_" class="st2" d="M151.9,121.6l2,6.4l6.7,0l-5.4,3.9l2.1,6.4l-5.4-4l-5.4,4l2.1-6.4l-5.4-3.9l6.7,0L151.9,121.6"
		/>
	<path id="path48_2_" class="st2" d="M172.1,101.5l2,6.4l6.7,0l-5.4,3.9l2.1,6.3l-5.4-4l-5.4,4l2.1-6.4l-5.4-3.9l6.7,0L172.1,101.5"
		/>
	<path id="path50_2_" class="st2" d="M179.5,73.9l2,6.4l6.7,0l-5.4,3.9l2.1,6.3l-5.4-4l-5.4,4l2.1-6.4l-5.4-3.9l6.7,0L179.5,73.9"/>
	<path id="path52_2_" class="st2" d="M172.1,46.4l2,6.4l6.7,0l-5.4,3.9l2.1,6.3l-5.4-4l-5.4,4l2.1-6.4l-5.4-3.9l6.7,0L172.1,46.4"/>
	<path id="path54_2_" class="st2" d="M151.9,26.2l2,6.4l6.7,0l-5.4,3.9l2.1,6.3l-5.4-4l-5.4,4l2.1-6.4l-5.4-3.9l6.7,0L151.9,26.2"/>
</g>
</svg>
